{"glyphs":{"0":{"ha":854,"x_min":65,"x_max":789,"o":"m 758 738 q 788 624 788 685 l 788 232 q 753 108 788 165 q 726 74 740 90 l 725 74 q 721 68 724 72 q 703 53 713 60 l 703 51 q 700 50 701 51 l 699 50 q 696 47 697 49 l 694 46 q 689 42 692 44 l 689 42 q 683 38 688 40 q 678 35 679 36 l 676 33 q 671 31 674 32 q 664 26 668 29 q 660 24 663 26 q 638 15 649 19 l 638 15 q 632 13 635 14 l 632 13 q 617 8 625 10 q 609 6 614 7 q 601 4 604 6 l 600 4 q 599 4 599 4 q 589 3 594 3 l 586 1 q 572 1 579 1 q 556 0 564 0 l 299 0 q 183 31 236 0 l 183 31 q 178 33 181 32 q 103 108 131 63 q 97 117 99 114 l 96 118 q 67 232 67 171 l 67 624 q 96 738 67 685 l 97 739 q 101 747 99 743 q 183 825 133 797 q 278 854 228 850 q 281 856 279 854 l 282 856 q 298 856 289 856 q 315 856 307 856 l 317 854 l 538 854 l 539 856 q 556 856 547 856 q 572 856 565 856 l 574 856 q 576 854 575 854 q 671 825 626 850 q 753 747 721 797 q 758 738 756 742 m 717 232 l 717 624 q 676 730 717 685 q 576 783 636 775 q 572 783 575 783 l 571 783 l 540 783 l 539 783 q 538 783 538 783 l 317 783 q 315 783 317 783 l 314 783 l 283 783 l 282 783 q 278 783 279 783 q 178 730 218 775 q 138 624 138 685 l 138 232 q 185 118 138 165 q 299 71 232 71 l 556 71 q 669 118 622 71 q 717 232 717 165 z "},"1":{"ha":332,"x_min":65,"x_max":267,"o":"m 67 854 l 267 854 l 267 0 l 196 0 l 196 783 l 67 783 l 67 854 z "},"2":{"ha":886,"x_min":65,"x_max":821,"o":"m 185 344 q 161 321 185 344 q 138 231 138 297 q 185 117 138 165 q 299 69 232 69 l 819 69 l 819 0 l 299 0 q 182 31 236 0 q 97 117 128 63 q 67 231 67 169 q 97 346 67 293 q 182 431 128 400 q 299 463 236 463 l 588 463 q 701 510 654 463 q 749 624 749 557 q 701 738 749 690 q 588 785 654 785 l 67 785 l 67 854 l 588 854 q 704 823 650 854 q 789 738 758 792 q 819 624 819 685 q 789 508 819 563 q 754 463 775 483 q 588 392 686 392 l 299 392 q 185 344 232 392 z "},"3":{"ha":857,"x_min":65,"x_max":792,"o":"m 721 406 q 769 336 751 375 q 792 238 792 289 q 758 118 792 172 q 678 35 729 67 q 569 0 628 4 l 569 0 q 553 0 561 0 q 539 0 546 0 l 538 0 l 67 0 l 67 71 l 589 71 l 593 71 q 687 131 650 85 q 724 238 724 178 q 656 374 724 322 l 647 381 l 140 381 l 140 450 l 572 450 l 575 450 q 633 468 606 454 q 634 469 633 468 q 635 469 635 469 l 635 469 q 699 531 675 492 q 722 617 722 571 q 680 728 722 681 q 575 783 638 776 l 572 785 l 67 785 l 67 854 l 554 854 q 672 823 617 854 q 758 739 726 792 l 758 738 q 792 617 792 682 q 758 497 792 553 q 722 449 743 471 l 700 428 l 721 406 z "},"4":{"ha":808,"x_min":65,"x_max":743,"o":"m 671 854 l 743 854 l 743 0 l 671 0 l 671 392 l 67 392 l 67 854 l 138 854 l 138 463 l 671 463 l 671 854 z "},"5":{"ha":854,"x_min":65,"x_max":789,"o":"m 753 356 q 788 233 788 300 q 753 108 788 165 q 667 28 719 57 q 556 0 615 0 l 67 0 l 67 71 l 556 71 q 669 118 622 71 q 717 232 717 165 q 676 339 717 293 q 576 392 636 385 l 574 392 l 67 392 l 67 856 l 138 856 l 138 854 l 686 854 l 686 783 l 138 783 l 138 463 l 533 463 l 535 463 q 556 464 546 464 q 576 463 567 464 q 677 430 631 458 q 753 356 724 401 z "},"6":{"ha":854,"x_min":65,"x_max":789,"o":"m 753 356 q 788 233 788 300 q 753 108 788 165 q 667 28 719 57 q 556 0 615 0 l 299 0 q 183 31 236 0 l 183 31 q 178 33 181 32 l 168 40 q 152 51 160 44 q 138 65 144 58 q 136 67 136 65 l 133 69 q 133 70 133 69 q 132 71 132 71 q 118 86 124 78 q 106 101 111 94 q 103 108 104 104 q 99 114 100 111 l 96 118 q 90 131 93 124 q 76 165 82 147 q 72 179 74 172 q 68 201 69 190 q 67 232 67 217 l 67 624 q 96 738 67 685 l 96 739 q 101 747 99 743 q 183 825 133 797 q 278 854 228 850 q 279 854 278 854 l 281 854 l 282 856 q 298 856 289 856 q 315 856 307 856 l 317 854 l 785 854 l 785 783 l 478 783 l 317 783 q 315 783 317 783 l 314 783 l 283 783 l 282 783 q 278 783 279 783 q 178 730 218 775 q 138 624 138 685 l 138 407 l 183 433 q 278 463 228 458 l 283 464 q 299 464 290 464 q 319 463 308 464 l 321 463 l 533 463 l 535 463 q 556 464 546 464 q 576 463 567 464 q 677 430 631 458 q 753 356 724 401 m 556 71 q 669 118 622 71 q 717 232 717 165 q 676 339 717 293 q 576 392 636 385 l 574 392 l 315 392 l 314 392 q 299 392 306 392 q 283 392 290 392 l 281 392 l 278 392 q 178 338 218 383 q 138 232 138 293 q 185 118 138 165 q 299 71 232 71 l 556 71 z "},"7":{"ha":760,"x_min":65,"x_max":694,"o":"m 622 854 l 693 854 l 693 0 l 622 0 l 622 783 l 67 783 l 67 854 l 622 854 z "},"8":{"ha":854,"x_min":65,"x_max":789,"o":"m 711 404 q 753 356 735 383 q 788 233 788 300 q 753 108 788 165 q 667 28 719 57 q 556 0 615 0 l 299 0 q 183 31 236 0 l 183 31 q 178 33 181 32 q 146 57 160 44 q 126 76 136 67 q 103 108 113 92 q 97 117 99 113 l 96 118 q 86 138 92 126 q 83 143 86 139 q 67 232 67 186 q 74 292 67 263 q 78 306 76 299 q 93 339 83 324 q 96 346 94 343 q 101 356 99 351 q 143 404 119 383 l 169 428 l 143 451 q 103 500 119 472 q 97 508 99 504 l 96 510 l 96 510 q 88 526 92 518 q 83 535 86 529 q 81 543 82 539 q 78 553 79 549 q 74 563 75 558 q 67 624 67 592 q 74 683 67 654 q 78 697 76 690 q 93 731 83 715 q 96 738 94 735 l 96 739 q 101 747 99 743 q 138 792 117 772 q 183 825 158 811 q 278 854 228 850 q 281 856 279 854 l 282 856 q 298 856 289 856 q 315 856 307 856 l 317 854 l 538 854 l 539 856 q 556 856 547 856 q 572 856 565 856 l 574 856 q 576 854 575 854 q 671 825 626 850 q 753 747 721 797 q 758 738 756 742 q 788 624 788 685 q 758 508 788 563 l 757 508 q 753 500 756 504 q 711 451 735 472 l 685 428 l 711 404 m 138 624 q 177 517 138 563 q 278 464 217 472 l 281 464 l 283 464 q 299 464 290 464 q 319 464 308 464 l 321 463 l 533 463 l 535 464 q 556 464 546 464 q 571 464 563 464 l 574 464 l 576 464 q 676 517 636 471 q 717 624 717 563 q 676 730 717 685 q 576 783 636 775 q 572 783 575 783 l 571 783 l 540 783 l 539 783 q 538 783 538 783 l 317 783 q 315 783 317 783 l 314 783 l 283 783 l 282 783 q 278 783 279 783 q 178 730 218 775 q 138 624 138 685 m 556 71 q 669 118 622 71 q 717 232 717 165 q 677 338 717 293 q 576 392 638 383 l 574 392 l 571 392 q 556 392 563 392 q 540 392 549 392 l 539 392 l 315 392 l 314 392 q 299 392 306 392 q 283 392 292 392 l 281 392 l 278 392 q 178 338 218 383 q 138 232 138 293 q 185 118 138 165 q 299 71 232 71 l 556 71 z "},"9":{"ha":854,"x_min":65,"x_max":789,"o":"m 758 738 q 788 624 788 685 l 788 232 q 758 118 788 171 l 758 117 q 753 108 756 114 q 671 31 721 58 q 576 1 626 6 l 576 1 q 575 1 576 1 l 574 1 l 572 0 q 556 0 564 0 q 539 0 547 0 l 538 1 l 86 1 l 86 72 l 379 72 l 538 72 q 539 72 538 72 l 539 72 l 540 72 l 571 72 l 572 72 l 572 72 q 576 72 576 72 q 676 126 636 81 q 717 232 717 171 q 676 338 717 293 q 576 392 636 383 l 574 392 l 571 392 q 556 392 564 392 q 535 393 546 392 l 533 393 l 321 393 l 319 393 q 298 392 308 392 q 278 393 288 392 q 177 426 224 397 q 101 500 131 454 q 67 623 67 556 q 101 747 67 690 q 187 827 135 799 q 299 856 239 856 l 556 856 q 671 825 618 856 l 671 825 q 676 822 674 824 q 753 747 724 793 q 757 739 756 743 l 758 738 m 717 464 l 717 624 q 670 738 717 690 q 557 785 624 785 l 297 785 q 184 738 231 785 q 138 624 138 690 q 178 517 138 563 q 278 464 218 471 l 281 464 l 539 464 l 540 464 q 556 464 549 464 q 571 464 564 464 q 571 464 571 464 l 572 464 l 717 464 z "},"\u000b":{"ha":732,"x_min":69,"x_max":663,"o":"m 69 972 l 663 972 l 663 0 l 69 0 l 69 972 m 108 944 l 365 515 l 624 944 l 108 944 m 349 486 l 99 903 l 99 68 l 349 486 m 367 457 l 110 29 l 624 29 l 367 457 m 383 486 l 635 65 l 635 906 l 383 486 z "},"\f":{"ha":732,"x_min":69,"x_max":663,"o":"m 69 972 l 663 972 l 663 0 l 69 0 l 69 972 m 108 944 l 365 515 l 624 944 l 108 944 m 349 486 l 99 903 l 99 68 l 349 486 m 367 457 l 110 29 l 624 29 l 367 457 m 383 486 l 635 65 l 635 906 l 383 486 z "},"Æ":{"ha":732,"x_min":69,"x_max":663,"o":"m 69 972 l 663 972 l 663 0 l 69 0 l 69 972 m 108 944 l 365 515 l 624 944 l 108 944 m 349 486 l 99 903 l 99 68 l 349 486 m 367 457 l 110 29 l 624 29 l 367 457 m 383 486 l 635 65 l 635 906 l 383 486 z "},"Ð":{"ha":732,"x_min":69,"x_max":663,"o":"m 69 972 l 663 972 l 663 0 l 69 0 l 69 972 m 108 944 l 365 515 l 624 944 l 108 944 m 349 486 l 99 903 l 99 68 l 349 486 m 367 457 l 110 29 l 624 29 l 367 457 m 383 486 l 635 65 l 635 906 l 383 486 z "},"×":{"ha":732,"x_min":69,"x_max":663,"o":"m 69 972 l 663 972 l 663 0 l 69 0 l 69 972 m 108 944 l 365 515 l 624 944 l 108 944 m 349 486 l 99 903 l 99 68 l 349 486 m 367 457 l 110 29 l 624 29 l 367 457 m 383 486 l 635 65 l 635 906 l 383 486 z "},"Þ":{"ha":732,"x_min":69,"x_max":663,"o":"m 69 972 l 663 972 l 663 0 l 69 0 l 69 972 m 108 944 l 365 515 l 624 944 l 108 944 m 349 486 l 99 903 l 99 68 l 349 486 m 367 457 l 110 29 l 624 29 l 367 457 m 383 486 l 635 65 l 635 906 l 383 486 z "},"ß":{"ha":732,"x_min":69,"x_max":663,"o":"m 69 972 l 663 972 l 663 0 l 69 0 l 69 972 m 108 944 l 365 515 l 624 944 l 108 944 m 349 486 l 99 903 l 99 68 l 349 486 m 367 457 l 110 29 l 624 29 l 367 457 m 383 486 l 635 65 l 635 906 l 383 486 z "},"æ":{"ha":732,"x_min":69,"x_max":663,"o":"m 69 972 l 663 972 l 663 0 l 69 0 l 69 972 m 108 944 l 365 515 l 624 944 l 108 944 m 349 486 l 99 903 l 99 68 l 349 486 m 367 457 l 110 29 l 624 29 l 367 457 m 383 486 l 635 65 l 635 906 l 383 486 z "},"ð":{"ha":732,"x_min":69,"x_max":663,"o":"m 69 972 l 663 972 l 663 0 l 69 0 l 69 972 m 108 944 l 365 515 l 624 944 l 108 944 m 349 486 l 99 903 l 99 68 l 349 486 m 367 457 l 110 29 l 624 29 l 367 457 m 383 486 l 635 65 l 635 906 l 383 486 z "},"÷":{"ha":732,"x_min":69,"x_max":663,"o":"m 69 972 l 663 972 l 663 0 l 69 0 l 69 972 m 108 944 l 365 515 l 624 944 l 108 944 m 349 486 l 99 903 l 99 68 l 349 486 m 367 457 l 110 29 l 624 29 l 367 457 m 383 486 l 635 65 l 635 906 l 383 486 z "},"þ":{"ha":732,"x_min":69,"x_max":663,"o":"m 69 972 l 663 972 l 663 0 l 69 0 l 69 972 m 108 944 l 365 515 l 624 944 l 108 944 m 349 486 l 99 903 l 99 68 l 349 486 m 367 457 l 110 29 l 624 29 l 367 457 m 383 486 l 635 65 l 635 906 l 383 486 z "},"\u0000":{"ha":0,"x_min":0,"x_max":0,"o":""},"\n":{"ha":0,"x_min":0,"x_max":0,"o":""},"\r":{"ha":0,"x_min":0,"x_max":0,"o":""}," ":{"ha":526,"x_min":0,"x_max":0,"o":""},"A":{"ha":1022,"x_min":65,"x_max":957,"o":"m 67 0 l 379 601 l 421 521 l 150 0 l 67 0 m 564 753 l 956 0 l 871 0 l 546 625 l 468 774 l 511 856 l 564 753 z "},"a":{"ha":1022,"x_min":65,"x_max":957,"o":"m 67 0 l 379 601 l 421 521 l 150 0 l 67 0 m 564 753 l 956 0 l 871 0 l 546 625 l 468 774 l 511 856 l 564 753 z "},"À":{"ha":1022,"x_min":65,"x_max":957,"o":"m 67 0 l 379 601 l 421 521 l 150 0 l 67 0 m 564 753 l 956 0 l 871 0 l 546 625 l 468 774 l 511 856 l 564 753 z "},"Á":{"ha":1022,"x_min":65,"x_max":957,"o":"m 67 0 l 379 601 l 421 521 l 150 0 l 67 0 m 564 753 l 956 0 l 871 0 l 546 625 l 468 774 l 511 856 l 564 753 z "},"Â":{"ha":1022,"x_min":65,"x_max":957,"o":"m 67 0 l 379 601 l 421 521 l 150 0 l 67 0 m 564 753 l 956 0 l 871 0 l 546 625 l 468 774 l 511 856 l 564 753 z "},"Ã":{"ha":1022,"x_min":65,"x_max":957,"o":"m 67 0 l 379 601 l 421 521 l 150 0 l 67 0 m 564 753 l 956 0 l 871 0 l 546 625 l 468 774 l 511 856 l 564 753 z "},"Ä":{"ha":1022,"x_min":65,"x_max":957,"o":"m 67 0 l 379 601 l 421 521 l 150 0 l 67 0 m 564 753 l 956 0 l 871 0 l 546 625 l 468 774 l 511 856 l 564 753 z "},"Å":{"ha":1022,"x_min":65,"x_max":957,"o":"m 67 0 l 379 601 l 421 521 l 150 0 l 67 0 m 564 753 l 956 0 l 871 0 l 546 625 l 468 774 l 511 856 l 564 753 z "},"à":{"ha":1022,"x_min":65,"x_max":957,"o":"m 67 0 l 379 601 l 421 521 l 150 0 l 67 0 m 564 753 l 956 0 l 871 0 l 546 625 l 468 774 l 511 856 l 564 753 z "},"á":{"ha":1022,"x_min":65,"x_max":957,"o":"m 67 0 l 379 601 l 421 521 l 150 0 l 67 0 m 564 753 l 956 0 l 871 0 l 546 625 l 468 774 l 511 856 l 564 753 z "},"â":{"ha":1022,"x_min":65,"x_max":957,"o":"m 67 0 l 379 601 l 421 521 l 150 0 l 67 0 m 564 753 l 956 0 l 871 0 l 546 625 l 468 774 l 511 856 l 564 753 z "},"ã":{"ha":1022,"x_min":65,"x_max":957,"o":"m 67 0 l 379 601 l 421 521 l 150 0 l 67 0 m 564 753 l 956 0 l 871 0 l 546 625 l 468 774 l 511 856 l 564 753 z "},"ä":{"ha":1022,"x_min":65,"x_max":957,"o":"m 67 0 l 379 601 l 421 521 l 150 0 l 67 0 m 564 753 l 956 0 l 871 0 l 546 625 l 468 774 l 511 856 l 564 753 z "},"å":{"ha":1022,"x_min":65,"x_max":957,"o":"m 67 0 l 379 601 l 421 521 l 150 0 l 67 0 m 564 753 l 956 0 l 871 0 l 546 625 l 468 774 l 511 856 l 564 753 z "},"B":{"ha":893,"x_min":65,"x_max":828,"o":"m 797 347 q 828 233 828 294 q 797 121 828 172 q 712 33 767 65 q 593 0 657 0 q 563 1 578 0 l 558 3 l 556 1 q 525 0 539 0 l 67 0 l 67 351 l 100 335 l 138 317 l 138 74 l 624 74 l 628 75 q 719 131 683 86 q 756 233 756 176 q 718 337 756 292 q 624 393 681 382 l 621 394 l 67 394 l 67 660 l 138 660 l 138 469 l 549 469 l 551 469 q 648 525 610 479 q 686 631 686 571 q 651 731 686 686 q 560 789 615 776 l 557 789 l 67 789 l 67 864 l 525 864 q 642 832 588 864 q 728 746 696 800 l 728 746 q 729 743 728 746 l 729 743 q 758 631 758 690 q 728 515 758 569 l 728 515 l 728 514 q 704 481 718 497 l 682 453 l 713 435 q 749 408 732 424 q 797 347 778 382 z "},"b":{"ha":893,"x_min":65,"x_max":828,"o":"m 797 347 q 828 233 828 294 q 797 121 828 172 q 712 33 767 65 q 593 0 657 0 q 563 1 578 0 l 558 3 l 556 1 q 525 0 539 0 l 67 0 l 67 351 l 100 335 l 138 317 l 138 74 l 624 74 l 628 75 q 719 131 683 86 q 756 233 756 176 q 718 337 756 292 q 624 393 681 382 l 621 394 l 67 394 l 67 660 l 138 660 l 138 469 l 549 469 l 551 469 q 648 525 610 479 q 686 631 686 571 q 651 731 686 686 q 560 789 615 776 l 557 789 l 67 789 l 67 864 l 525 864 q 642 832 588 864 q 728 746 696 800 l 728 746 q 729 743 728 746 l 729 743 q 758 631 758 690 q 728 515 758 569 l 728 515 l 728 514 q 704 481 718 497 l 682 453 l 713 435 q 749 408 732 424 q 797 347 778 382 z "},"C":{"ha":965,"x_min":65,"x_max":900,"o":"m 499 71 q 681 122 596 71 q 814 258 767 172 l 893 258 q 754 85 847 153 q 499 0 640 0 q 214 106 336 0 q 71 368 94 211 q 67 432 67 400 q 71 493 67 463 q 214 757 93 651 q 499 864 336 864 q 760 775 644 864 q 900 592 854 703 l 822 592 q 689 739 776 685 q 499 793 601 793 q 269 711 369 793 q 144 503 169 629 q 138 432 138 468 q 144 358 138 394 q 271 152 171 233 q 499 71 371 71 z "},"c":{"ha":965,"x_min":65,"x_max":900,"o":"m 499 71 q 681 122 596 71 q 814 258 767 172 l 893 258 q 754 85 847 153 q 499 0 640 0 q 214 106 336 0 q 71 368 94 211 q 67 432 67 400 q 71 493 67 463 q 214 757 93 651 q 499 864 336 864 q 760 775 644 864 q 900 592 854 703 l 822 592 q 689 739 776 685 q 499 793 601 793 q 269 711 369 793 q 144 503 169 629 q 138 432 138 468 q 144 358 138 394 q 271 152 171 233 q 499 71 371 71 z "},"Ç":{"ha":965,"x_min":65,"x_max":900,"o":"m 499 71 q 681 122 596 71 q 814 258 767 172 l 893 258 q 754 85 847 153 q 499 0 640 0 q 214 106 336 0 q 71 368 94 211 q 67 432 67 400 q 71 493 67 463 q 214 757 93 651 q 499 864 336 864 q 760 775 644 864 q 900 592 854 703 l 822 592 q 689 739 776 685 q 499 793 601 793 q 269 711 369 793 q 144 503 169 629 q 138 432 138 468 q 144 358 138 394 q 271 152 171 233 q 499 71 371 71 z "},"ç":{"ha":965,"x_min":65,"x_max":900,"o":"m 499 71 q 681 122 596 71 q 814 258 767 172 l 893 258 q 754 85 847 153 q 499 0 640 0 q 214 106 336 0 q 71 368 94 211 q 67 432 67 400 q 71 493 67 463 q 214 757 93 651 q 499 864 336 864 q 760 775 644 864 q 900 592 854 703 l 822 592 q 689 739 776 685 q 499 793 601 793 q 269 711 369 793 q 144 503 169 629 q 138 432 138 468 q 144 358 138 394 q 271 152 171 233 q 499 71 371 71 z "},"D":{"ha":901,"x_min":65,"x_max":836,"o":"m 138 142 l 114 129 l 67 107 l 67 661 l 138 661 l 138 142 m 831 489 q 835 428 835 460 q 831 365 835 397 q 706 120 810 222 q 457 0 601 18 l 67 0 l 67 71 l 453 71 l 456 71 q 650 165 567 88 q 757 354 733 243 q 764 428 764 392 q 757 500 764 465 q 621 717 731 633 q 419 789 531 785 l 418 789 l 67 789 l 67 861 l 388 861 l 408 860 q 689 751 569 858 q 831 489 808 646 z "},"d":{"ha":901,"x_min":65,"x_max":836,"o":"m 138 142 l 114 129 l 67 107 l 67 661 l 138 661 l 138 142 m 831 489 q 835 428 835 460 q 831 365 835 397 q 706 120 810 222 q 457 0 601 18 l 67 0 l 67 71 l 453 71 l 456 71 q 650 165 567 88 q 757 354 733 243 q 764 428 764 392 q 757 500 764 465 q 621 717 731 633 q 419 789 531 785 l 418 789 l 67 789 l 67 861 l 388 861 l 408 860 q 689 751 569 858 q 831 489 808 646 z "},"E":{"ha":886,"x_min":65,"x_max":821,"o":"m 138 428 l 138 71 l 819 71 l 819 0 l 67 0 l 67 661 l 138 661 l 138 499 l 731 499 l 731 428 l 138 428 m 819 789 l 67 789 l 67 861 l 819 861 l 819 789 z "},"e":{"ha":886,"x_min":65,"x_max":821,"o":"m 138 428 l 138 71 l 819 71 l 819 0 l 67 0 l 67 661 l 138 661 l 138 499 l 731 499 l 731 428 l 138 428 m 819 789 l 67 789 l 67 861 l 819 861 l 819 789 z "},"È":{"ha":886,"x_min":65,"x_max":821,"o":"m 138 428 l 138 71 l 819 71 l 819 0 l 67 0 l 67 661 l 138 661 l 138 499 l 731 499 l 731 428 l 138 428 m 819 789 l 67 789 l 67 861 l 819 861 l 819 789 z "},"É":{"ha":886,"x_min":65,"x_max":821,"o":"m 138 428 l 138 71 l 819 71 l 819 0 l 67 0 l 67 661 l 138 661 l 138 499 l 731 499 l 731 428 l 138 428 m 819 789 l 67 789 l 67 861 l 819 861 l 819 789 z "},"Ê":{"ha":886,"x_min":65,"x_max":821,"o":"m 138 428 l 138 71 l 819 71 l 819 0 l 67 0 l 67 661 l 138 661 l 138 499 l 731 499 l 731 428 l 138 428 m 819 789 l 67 789 l 67 861 l 819 861 l 819 789 z "},"Ë":{"ha":886,"x_min":65,"x_max":821,"o":"m 138 428 l 138 71 l 819 71 l 819 0 l 67 0 l 67 661 l 138 661 l 138 499 l 731 499 l 731 428 l 138 428 m 819 789 l 67 789 l 67 861 l 819 861 l 819 789 z "},"è":{"ha":886,"x_min":65,"x_max":821,"o":"m 138 428 l 138 71 l 819 71 l 819 0 l 67 0 l 67 661 l 138 661 l 138 499 l 731 499 l 731 428 l 138 428 m 819 789 l 67 789 l 67 861 l 819 861 l 819 789 z "},"é":{"ha":886,"x_min":65,"x_max":821,"o":"m 138 428 l 138 71 l 819 71 l 819 0 l 67 0 l 67 661 l 138 661 l 138 499 l 731 499 l 731 428 l 138 428 m 819 789 l 67 789 l 67 861 l 819 861 l 819 789 z "},"ê":{"ha":886,"x_min":65,"x_max":821,"o":"m 138 428 l 138 71 l 819 71 l 819 0 l 67 0 l 67 661 l 138 661 l 138 499 l 731 499 l 731 428 l 138 428 m 819 789 l 67 789 l 67 861 l 819 861 l 819 789 z "},"ë":{"ha":886,"x_min":65,"x_max":821,"o":"m 138 428 l 138 71 l 819 71 l 819 0 l 67 0 l 67 661 l 138 661 l 138 499 l 731 499 l 731 428 l 138 428 m 819 789 l 67 789 l 67 861 l 819 861 l 819 789 z "},"F":{"ha":886,"x_min":65,"x_max":821,"o":"m 138 661 l 138 499 l 731 499 l 731 428 l 138 428 l 138 0 l 67 0 l 67 661 l 138 661 m 819 789 l 67 789 l 67 861 l 819 861 l 819 789 z "},"f":{"ha":886,"x_min":65,"x_max":821,"o":"m 138 661 l 138 499 l 731 499 l 731 428 l 138 428 l 138 0 l 67 0 l 67 661 l 138 661 m 819 789 l 67 789 l 67 861 l 819 861 l 819 789 z "},"G":{"ha":940,"x_min":65,"x_max":875,"o":"m 496 497 l 874 497 l 874 0 l 507 0 q 197 125 325 0 q 67 429 67 250 q 197 735 67 608 q 507 858 325 858 l 872 858 l 872 788 l 458 788 l 456 788 q 226 667 318 769 q 133 429 133 564 q 226 192 133 294 q 456 71 318 89 l 458 71 l 803 71 l 803 426 l 529 426 l 496 497 z "},"g":{"ha":940,"x_min":65,"x_max":875,"o":"m 496 497 l 874 497 l 874 0 l 507 0 q 197 125 325 0 q 67 429 67 250 q 197 735 67 608 q 507 858 325 858 l 872 858 l 872 788 l 458 788 l 456 788 q 226 667 318 769 q 133 429 133 564 q 226 192 133 294 q 456 71 318 89 l 458 71 l 803 71 l 803 426 l 529 426 l 496 497 z "},"H":{"ha":878,"x_min":65,"x_max":813,"o":"m 740 858 l 811 858 l 811 0 l 740 0 l 740 426 l 138 426 l 138 0 l 67 0 l 67 858 l 138 858 l 138 497 l 740 497 l 740 858 z "},"h":{"ha":878,"x_min":65,"x_max":813,"o":"m 740 858 l 811 858 l 811 0 l 740 0 l 740 426 l 138 426 l 138 0 l 67 0 l 67 858 l 138 858 l 138 497 l 740 497 l 740 858 z "},"I":{"ha":203,"x_min":65,"x_max":138,"o":"m 138 0 l 67 0 l 67 863 l 138 863 l 138 0 z "},"i":{"ha":203,"x_min":65,"x_max":138,"o":"m 138 0 l 67 0 l 67 863 l 138 863 l 138 0 z "},"Ì":{"ha":203,"x_min":65,"x_max":138,"o":"m 138 0 l 67 0 l 67 863 l 138 863 l 138 0 z "},"Í":{"ha":203,"x_min":65,"x_max":138,"o":"m 138 0 l 67 0 l 67 863 l 138 863 l 138 0 z "},"Î":{"ha":203,"x_min":65,"x_max":138,"o":"m 138 0 l 67 0 l 67 863 l 138 863 l 138 0 z "},"Ï":{"ha":203,"x_min":65,"x_max":138,"o":"m 138 0 l 67 0 l 67 863 l 138 863 l 138 0 z "},"ì":{"ha":203,"x_min":65,"x_max":138,"o":"m 138 0 l 67 0 l 67 863 l 138 863 l 138 0 z "},"í":{"ha":203,"x_min":65,"x_max":138,"o":"m 138 0 l 67 0 l 67 863 l 138 863 l 138 0 z "},"î":{"ha":203,"x_min":65,"x_max":138,"o":"m 138 0 l 67 0 l 67 863 l 138 863 l 138 0 z "},"ï":{"ha":203,"x_min":65,"x_max":138,"o":"m 138 0 l 67 0 l 67 863 l 138 863 l 138 0 z "},"J":{"ha":771,"x_min":65,"x_max":706,"o":"m 633 864 l 706 864 l 706 201 q 585 76 658 126 q 339 0 475 0 q 179 31 257 0 q 67 97 118 56 l 67 325 l 138 325 l 138 132 l 151 124 q 339 71 239 71 q 501 108 425 71 q 628 215 576 146 l 633 224 l 633 864 z "},"j":{"ha":771,"x_min":65,"x_max":706,"o":"m 633 864 l 706 864 l 706 201 q 585 76 658 126 q 339 0 475 0 q 179 31 257 0 q 67 97 118 56 l 67 325 l 138 325 l 138 132 l 151 124 q 339 71 239 71 q 501 108 425 71 q 628 215 576 146 l 633 224 l 633 864 z "},"K":{"ha":850,"x_min":65,"x_max":785,"o":"m 138 860 l 138 497 l 67 425 l 67 860 l 138 860 m 354 431 l 783 0 l 683 0 l 304 381 l 138 214 l 138 0 l 67 0 l 67 243 l 138 315 l 138 314 l 300 476 l 683 860 l 783 860 l 375 453 l 354 431 z "},"k":{"ha":850,"x_min":65,"x_max":785,"o":"m 138 860 l 138 497 l 67 425 l 67 860 l 138 860 m 354 431 l 783 0 l 683 0 l 304 381 l 138 214 l 138 0 l 67 0 l 67 243 l 138 315 l 138 314 l 300 476 l 683 860 l 783 860 l 375 453 l 354 431 z "},"L":{"ha":788,"x_min":65,"x_max":722,"o":"m 138 71 l 722 71 l 722 0 l 67 0 l 67 868 l 138 868 l 138 71 z "},"l":{"ha":788,"x_min":65,"x_max":722,"o":"m 138 71 l 722 71 l 722 0 l 67 0 l 67 868 l 138 868 l 138 71 z "},"M":{"ha":931,"x_min":65,"x_max":865,"o":"m 67 0 l 67 564 l 140 490 l 140 0 l 67 0 m 731 719 l 864 854 l 864 0 l 790 0 l 790 674 l 735 618 l 544 428 l 508 392 l 499 383 l 468 353 l 196 625 l 140 681 l 67 756 l 67 860 l 468 458 l 731 719 z "},"m":{"ha":931,"x_min":65,"x_max":865,"o":"m 67 0 l 67 564 l 140 490 l 140 0 l 67 0 m 731 719 l 864 854 l 864 0 l 790 0 l 790 674 l 735 618 l 544 428 l 508 392 l 499 383 l 468 353 l 196 625 l 140 681 l 67 756 l 67 860 l 468 458 l 731 719 z "},"N":{"ha":803,"x_min":65,"x_max":738,"o":"m 67 0 l 67 536 l 138 465 l 138 0 l 67 0 m 665 861 l 736 861 l 736 49 l 657 128 l 190 594 l 138 647 l 67 718 l 67 819 l 665 219 l 665 861 z "},"n":{"ha":803,"x_min":65,"x_max":738,"o":"m 67 0 l 67 536 l 138 465 l 138 0 l 67 0 m 665 861 l 736 861 l 736 49 l 657 128 l 190 594 l 138 647 l 67 718 l 67 819 l 665 219 l 665 861 z "},"Ñ":{"ha":803,"x_min":65,"x_max":738,"o":"m 67 0 l 67 536 l 138 465 l 138 0 l 67 0 m 665 861 l 736 861 l 736 49 l 657 128 l 190 594 l 138 647 l 67 718 l 67 819 l 665 219 l 665 861 z "},"ñ":{"ha":803,"x_min":65,"x_max":738,"o":"m 67 0 l 67 536 l 138 465 l 138 0 l 67 0 m 665 861 l 736 861 l 736 49 l 657 128 l 190 594 l 138 647 l 67 718 l 67 819 l 665 219 l 665 861 z "},"O":{"ha":999,"x_min":65,"x_max":933,"o":"m 193 739 q 256 802 193 739 q 499 865 319 865 q 805 739 678 865 q 932 433 932 613 q 805 127 932 254 q 499 0 678 0 q 193 127 319 0 q 67 433 67 254 q 193 739 67 613 m 247 180 q 299 127 247 180 q 499 75 351 75 q 752 180 647 75 q 857 433 857 285 q 752 685 857 581 q 499 790 647 790 q 247 685 351 790 q 142 433 142 581 q 247 180 142 285 z "},"o":{"ha":999,"x_min":65,"x_max":933,"o":"m 193 739 q 256 802 193 739 q 499 865 319 865 q 805 739 678 865 q 932 433 932 613 q 805 127 932 254 q 499 0 678 0 q 193 127 319 0 q 67 433 67 254 q 193 739 67 613 m 247 180 q 299 127 247 180 q 499 75 351 75 q 752 180 647 75 q 857 433 857 285 q 752 685 857 581 q 499 790 647 790 q 247 685 351 790 q 142 433 142 581 q 247 180 142 285 z "},"Ò":{"ha":999,"x_min":65,"x_max":933,"o":"m 193 739 q 256 802 193 739 q 499 865 319 865 q 805 739 678 865 q 932 433 932 613 q 805 127 932 254 q 499 0 678 0 q 193 127 319 0 q 67 433 67 254 q 193 739 67 613 m 247 180 q 299 127 247 180 q 499 75 351 75 q 752 180 647 75 q 857 433 857 285 q 752 685 857 581 q 499 790 647 790 q 247 685 351 790 q 142 433 142 581 q 247 180 142 285 z "},"Ó":{"ha":999,"x_min":65,"x_max":933,"o":"m 193 739 q 256 802 193 739 q 499 865 319 865 q 805 739 678 865 q 932 433 932 613 q 805 127 932 254 q 499 0 678 0 q 193 127 319 0 q 67 433 67 254 q 193 739 67 613 m 247 180 q 299 127 247 180 q 499 75 351 75 q 752 180 647 75 q 857 433 857 285 q 752 685 857 581 q 499 790 647 790 q 247 685 351 790 q 142 433 142 581 q 247 180 142 285 z "},"Ô":{"ha":999,"x_min":65,"x_max":933,"o":"m 193 739 q 256 802 193 739 q 499 865 319 865 q 805 739 678 865 q 932 433 932 613 q 805 127 932 254 q 499 0 678 0 q 193 127 319 0 q 67 433 67 254 q 193 739 67 613 m 247 180 q 299 127 247 180 q 499 75 351 75 q 752 180 647 75 q 857 433 857 285 q 752 685 857 581 q 499 790 647 790 q 247 685 351 790 q 142 433 142 581 q 247 180 142 285 z "},"Õ":{"ha":999,"x_min":65,"x_max":933,"o":"m 193 739 q 256 802 193 739 q 499 865 319 865 q 805 739 678 865 q 932 433 932 613 q 805 127 932 254 q 499 0 678 0 q 193 127 319 0 q 67 433 67 254 q 193 739 67 613 m 247 180 q 299 127 247 180 q 499 75 351 75 q 752 180 647 75 q 857 433 857 285 q 752 685 857 581 q 499 790 647 790 q 247 685 351 790 q 142 433 142 581 q 247 180 142 285 z "},"Ö":{"ha":999,"x_min":65,"x_max":933,"o":"m 193 739 q 256 802 193 739 q 499 865 319 865 q 805 739 678 865 q 932 433 932 613 q 805 127 932 254 q 499 0 678 0 q 193 127 319 0 q 67 433 67 254 q 193 739 67 613 m 247 180 q 299 127 247 180 q 499 75 351 75 q 752 180 647 75 q 857 433 857 285 q 752 685 857 581 q 499 790 647 790 q 247 685 351 790 q 142 433 142 581 q 247 180 142 285 z "},"Ø":{"ha":999,"x_min":65,"x_max":933,"o":"m 193 739 q 256 802 193 739 q 499 865 319 865 q 805 739 678 865 q 932 433 932 613 q 805 127 932 254 q 499 0 678 0 q 193 127 319 0 q 67 433 67 254 q 193 739 67 613 m 247 180 q 299 127 247 180 q 499 75 351 75 q 752 180 647 75 q 857 433 857 285 q 752 685 857 581 q 499 790 647 790 q 247 685 351 790 q 142 433 142 581 q 247 180 142 285 z "},"ò":{"ha":999,"x_min":65,"x_max":933,"o":"m 193 739 q 256 802 193 739 q 499 865 319 865 q 805 739 678 865 q 932 433 932 613 q 805 127 932 254 q 499 0 678 0 q 193 127 319 0 q 67 433 67 254 q 193 739 67 613 m 247 180 q 299 127 247 180 q 499 75 351 75 q 752 180 647 75 q 857 433 857 285 q 752 685 857 581 q 499 790 647 790 q 247 685 351 790 q 142 433 142 581 q 247 180 142 285 z "},"ó":{"ha":999,"x_min":65,"x_max":933,"o":"m 193 739 q 256 802 193 739 q 499 865 319 865 q 805 739 678 865 q 932 433 932 613 q 805 127 932 254 q 499 0 678 0 q 193 127 319 0 q 67 433 67 254 q 193 739 67 613 m 247 180 q 299 127 247 180 q 499 75 351 75 q 752 180 647 75 q 857 433 857 285 q 752 685 857 581 q 499 790 647 790 q 247 685 351 790 q 142 433 142 581 q 247 180 142 285 z "},"ô":{"ha":999,"x_min":65,"x_max":933,"o":"m 193 739 q 256 802 193 739 q 499 865 319 865 q 805 739 678 865 q 932 433 932 613 q 805 127 932 254 q 499 0 678 0 q 193 127 319 0 q 67 433 67 254 q 193 739 67 613 m 247 180 q 299 127 247 180 q 499 75 351 75 q 752 180 647 75 q 857 433 857 285 q 752 685 857 581 q 499 790 647 790 q 247 685 351 790 q 142 433 142 581 q 247 180 142 285 z "},"õ":{"ha":999,"x_min":65,"x_max":933,"o":"m 193 739 q 256 802 193 739 q 499 865 319 865 q 805 739 678 865 q 932 433 932 613 q 805 127 932 254 q 499 0 678 0 q 193 127 319 0 q 67 433 67 254 q 193 739 67 613 m 247 180 q 299 127 247 180 q 499 75 351 75 q 752 180 647 75 q 857 433 857 285 q 752 685 857 581 q 499 790 647 790 q 247 685 351 790 q 142 433 142 581 q 247 180 142 285 z "},"ö":{"ha":999,"x_min":65,"x_max":933,"o":"m 193 739 q 256 802 193 739 q 499 865 319 865 q 805 739 678 865 q 932 433 932 613 q 805 127 932 254 q 499 0 678 0 q 193 127 319 0 q 67 433 67 254 q 193 739 67 613 m 247 180 q 299 127 247 180 q 499 75 351 75 q 752 180 647 75 q 857 433 857 285 q 752 685 857 581 q 499 790 647 790 q 247 685 351 790 q 142 433 142 581 q 247 180 142 285 z "},"ø":{"ha":999,"x_min":65,"x_max":933,"o":"m 193 739 q 256 802 193 739 q 499 865 319 865 q 805 739 678 865 q 932 433 932 613 q 805 127 932 254 q 499 0 678 0 q 193 127 319 0 q 67 433 67 254 q 193 739 67 613 m 247 180 q 299 127 247 180 q 499 75 351 75 q 752 180 647 75 q 857 433 857 285 q 752 685 857 581 q 499 790 647 790 q 247 685 351 790 q 142 433 142 581 q 247 180 142 285 z "},"P":{"ha":811,"x_min":65,"x_max":746,"o":"m 542 860 q 686 793 628 856 q 744 646 744 731 q 688 500 744 561 q 547 432 631 438 l 528 431 l 138 431 l 138 0 l 67 0 l 67 503 l 138 503 l 138 501 l 531 501 q 632 544 590 501 q 674 646 674 586 q 632 747 674 706 q 531 789 590 789 q 521 789 525 789 l 519 789 l 138 789 l 138 579 l 101 561 l 67 544 l 67 860 l 536 860 l 542 860 z "},"p":{"ha":811,"x_min":65,"x_max":746,"o":"m 542 860 q 686 793 628 856 q 744 646 744 731 q 688 500 744 561 q 547 432 631 438 l 528 431 l 138 431 l 138 0 l 67 0 l 67 503 l 138 503 l 138 501 l 531 501 q 632 544 590 501 q 674 646 674 586 q 632 747 674 706 q 531 789 590 789 q 521 789 525 789 l 519 789 l 138 789 l 138 579 l 101 561 l 67 544 l 67 860 l 536 860 l 542 860 z "},"Q":{"ha":993,"x_min":65,"x_max":928,"o":"m 753 83 l 776 60 l 836 0 l 763 0 l 683 0 l 686 1 l 499 0 l 497 0 l 496 0 q 192 126 318 0 q 67 431 67 253 q 192 734 67 608 q 496 860 318 860 q 800 734 674 860 q 926 431 926 608 q 822 149 926 269 q 778 106 801 125 l 753 83 m 724 151 q 775 203 751 175 q 856 431 856 303 q 750 684 856 579 q 496 789 644 789 q 242 684 347 789 q 138 431 138 579 q 242 176 138 282 q 496 71 347 71 q 588 82 543 71 q 661 111 625 93 q 724 151 694 128 z "},"q":{"ha":993,"x_min":65,"x_max":928,"o":"m 753 83 l 776 60 l 836 0 l 763 0 l 683 0 l 686 1 l 499 0 l 497 0 l 496 0 q 192 126 318 0 q 67 431 67 253 q 192 734 67 608 q 496 860 318 860 q 800 734 674 860 q 926 431 926 608 q 822 149 926 269 q 778 106 801 125 l 753 83 m 724 151 q 775 203 751 175 q 856 431 856 303 q 750 684 856 579 q 496 789 644 789 q 242 684 347 789 q 138 431 138 579 q 242 176 138 282 q 496 71 347 71 q 588 82 543 71 q 661 111 625 93 q 724 151 694 128 z "},"R":{"ha":904,"x_min":65,"x_max":839,"o":"m 576 429 l 839 0 l 756 0 l 499 421 l 492 433 l 479 453 l 456 447 l 454 446 l 454 446 q 449 444 449 444 l 447 444 l 446 444 l 446 444 q 436 442 444 443 q 414 438 425 439 q 408 436 411 436 l 407 436 q 404 436 406 436 q 396 435 399 435 l 396 435 q 393 435 393 435 l 392 435 q 383 433 386 433 l 383 433 q 374 432 376 432 q 371 432 372 432 q 363 432 368 432 l 361 432 l 360 432 q 353 431 356 431 l 351 431 l 349 431 q 340 431 343 431 l 138 431 l 138 0 l 67 0 l 67 501 l 340 501 q 482 532 415 501 q 592 606 544 558 q 682 751 656 668 l 696 792 l 138 792 l 138 576 l 106 561 l 67 542 l 67 863 l 771 863 l 771 861 q 760 768 771 814 q 642 556 733 644 q 625 539 633 547 q 619 535 622 538 q 619 533 619 533 q 611 528 618 533 l 611 528 q 606 524 610 526 q 604 521 606 524 l 603 521 q 588 510 596 515 q 585 508 586 508 q 582 506 583 507 l 581 504 q 574 500 576 503 l 574 500 l 572 499 q 571 499 571 499 q 571 497 571 499 l 544 482 l 561 456 l 576 429 z "},"r":{"ha":904,"x_min":65,"x_max":839,"o":"m 576 429 l 839 0 l 756 0 l 499 421 l 492 433 l 479 453 l 456 447 l 454 446 l 454 446 q 449 444 449 444 l 447 444 l 446 444 l 446 444 q 436 442 444 443 q 414 438 425 439 q 408 436 411 436 l 407 436 q 404 436 406 436 q 396 435 399 435 l 396 435 q 393 435 393 435 l 392 435 q 383 433 386 433 l 383 433 q 374 432 376 432 q 371 432 372 432 q 363 432 368 432 l 361 432 l 360 432 q 353 431 356 431 l 351 431 l 349 431 q 340 431 343 431 l 138 431 l 138 0 l 67 0 l 67 501 l 340 501 q 482 532 415 501 q 592 606 544 558 q 682 751 656 668 l 696 792 l 138 792 l 138 576 l 106 561 l 67 542 l 67 863 l 771 863 l 771 861 q 760 768 771 814 q 642 556 733 644 q 625 539 633 547 q 619 535 622 538 q 619 533 619 533 q 611 528 618 533 l 611 528 q 606 524 610 526 q 604 521 606 524 l 603 521 q 588 510 596 515 q 585 508 586 508 q 582 506 583 507 l 581 504 q 574 500 576 503 l 574 500 l 572 499 q 571 499 571 499 q 571 497 571 499 l 544 482 l 561 456 l 576 429 z "},"S":{"ha":893,"x_min":65,"x_max":828,"o":"m 299 790 q 185 742 232 790 q 138 628 138 694 q 185 513 138 561 q 299 465 232 465 l 588 465 q 704 434 650 465 q 789 349 758 403 q 819 233 819 294 q 789 118 819 171 q 704 31 758 63 q 588 0 650 0 l 67 0 l 67 71 l 588 71 q 701 118 654 71 q 749 233 749 165 q 701 347 749 300 q 588 394 654 394 l 299 394 q 182 426 236 394 q 97 513 128 458 q 67 628 67 565 q 97 743 67 690 q 182 829 128 797 q 299 861 236 861 l 828 861 l 828 790 l 299 790 z "},"s":{"ha":893,"x_min":65,"x_max":828,"o":"m 299 790 q 185 742 232 790 q 138 628 138 694 q 185 513 138 561 q 299 465 232 465 l 588 465 q 704 434 650 465 q 789 349 758 403 q 819 233 819 294 q 789 118 819 171 q 704 31 758 63 q 588 0 650 0 l 67 0 l 67 71 l 588 71 q 701 118 654 71 q 749 233 749 165 q 701 347 749 300 q 588 394 654 394 l 299 394 q 182 426 236 394 q 97 513 128 458 q 67 628 67 565 q 97 743 67 690 q 182 829 128 797 q 299 861 236 861 l 828 861 l 828 790 l 299 790 z "},"T":{"ha":893,"x_min":65,"x_max":828,"o":"m 475 0 l 404 0 l 404 661 l 475 661 l 475 0 m 828 789 l 67 789 l 67 860 l 828 860 l 828 789 z "},"t":{"ha":893,"x_min":65,"x_max":828,"o":"m 475 0 l 404 0 l 404 661 l 475 661 l 475 0 m 828 789 l 67 789 l 67 860 l 828 860 l 828 789 z "},"U":{"ha":893,"x_min":65,"x_max":828,"o":"m 756 861 l 826 861 l 826 306 q 763 138 826 207 q 706 88 736 110 q 447 0 592 0 q 188 88 301 0 q 131 139 157 110 q 67 306 67 208 l 67 861 l 138 861 l 138 382 q 225 166 138 257 q 436 71 313 75 q 447 71 440 71 q 457 71 451 71 q 668 166 581 75 q 756 382 756 257 l 756 861 z "},"u":{"ha":893,"x_min":65,"x_max":828,"o":"m 756 861 l 826 861 l 826 306 q 763 138 826 207 q 706 88 736 110 q 447 0 592 0 q 188 88 301 0 q 131 139 157 110 q 67 306 67 208 l 67 861 l 138 861 l 138 382 q 225 166 138 257 q 436 71 313 75 q 447 71 440 71 q 457 71 451 71 q 668 166 581 75 q 756 382 756 257 l 756 861 z "},"Ù":{"ha":893,"x_min":65,"x_max":828,"o":"m 756 861 l 826 861 l 826 306 q 763 138 826 207 q 706 88 736 110 q 447 0 592 0 q 188 88 301 0 q 131 139 157 110 q 67 306 67 208 l 67 861 l 138 861 l 138 382 q 225 166 138 257 q 436 71 313 75 q 447 71 440 71 q 457 71 451 71 q 668 166 581 75 q 756 382 756 257 l 756 861 z "},"Ú":{"ha":893,"x_min":65,"x_max":828,"o":"m 756 861 l 826 861 l 826 306 q 763 138 826 207 q 706 88 736 110 q 447 0 592 0 q 188 88 301 0 q 131 139 157 110 q 67 306 67 208 l 67 861 l 138 861 l 138 382 q 225 166 138 257 q 436 71 313 75 q 447 71 440 71 q 457 71 451 71 q 668 166 581 75 q 756 382 756 257 l 756 861 z "},"Û":{"ha":893,"x_min":65,"x_max":828,"o":"m 756 861 l 826 861 l 826 306 q 763 138 826 207 q 706 88 736 110 q 447 0 592 0 q 188 88 301 0 q 131 139 157 110 q 67 306 67 208 l 67 861 l 138 861 l 138 382 q 225 166 138 257 q 436 71 313 75 q 447 71 440 71 q 457 71 451 71 q 668 166 581 75 q 756 382 756 257 l 756 861 z "},"Ü":{"ha":893,"x_min":65,"x_max":828,"o":"m 756 861 l 826 861 l 826 306 q 763 138 826 207 q 706 88 736 110 q 447 0 592 0 q 188 88 301 0 q 131 139 157 110 q 67 306 67 208 l 67 861 l 138 861 l 138 382 q 225 166 138 257 q 436 71 313 75 q 447 71 440 71 q 457 71 451 71 q 668 166 581 75 q 756 382 756 257 l 756 861 z "},"ù":{"ha":893,"x_min":65,"x_max":828,"o":"m 756 861 l 826 861 l 826 306 q 763 138 826 207 q 706 88 736 110 q 447 0 592 0 q 188 88 301 0 q 131 139 157 110 q 67 306 67 208 l 67 861 l 138 861 l 138 382 q 225 166 138 257 q 436 71 313 75 q 447 71 440 71 q 457 71 451 71 q 668 166 581 75 q 756 382 756 257 l 756 861 z "},"ú":{"ha":893,"x_min":65,"x_max":828,"o":"m 756 861 l 826 861 l 826 306 q 763 138 826 207 q 706 88 736 110 q 447 0 592 0 q 188 88 301 0 q 131 139 157 110 q 67 306 67 208 l 67 861 l 138 861 l 138 382 q 225 166 138 257 q 436 71 313 75 q 447 71 440 71 q 457 71 451 71 q 668 166 581 75 q 756 382 756 257 l 756 861 z "},"û":{"ha":893,"x_min":65,"x_max":828,"o":"m 756 861 l 826 861 l 826 306 q 763 138 826 207 q 706 88 736 110 q 447 0 592 0 q 188 88 301 0 q 131 139 157 110 q 67 306 67 208 l 67 861 l 138 861 l 138 382 q 225 166 138 257 q 436 71 313 75 q 447 71 440 71 q 457 71 451 71 q 668 166 581 75 q 756 382 756 257 l 756 861 z "},"ü":{"ha":893,"x_min":65,"x_max":828,"o":"m 756 861 l 826 861 l 826 306 q 763 138 826 207 q 706 88 736 110 q 447 0 592 0 q 188 88 301 0 q 131 139 157 110 q 67 306 67 208 l 67 861 l 138 861 l 138 382 q 225 166 138 257 q 436 71 313 75 q 447 71 440 71 q 457 71 451 71 q 668 166 581 75 q 756 382 756 257 l 756 861 z "},"V":{"ha":1029,"x_min":65,"x_max":964,"o":"m 67 810 l 156 810 l 428 318 l 383 238 l 67 810 m 874 810 l 963 810 l 569 99 l 515 0 l 511 8 l 511 7 l 469 81 l 547 221 l 874 810 z "},"v":{"ha":1029,"x_min":65,"x_max":964,"o":"m 67 810 l 156 810 l 428 318 l 383 238 l 67 810 m 874 810 l 963 810 l 569 99 l 515 0 l 511 8 l 511 7 l 469 81 l 547 221 l 874 810 z "},"W":{"ha":1478,"x_min":65,"x_max":1413,"o":"m 1328 864 l 1411 864 l 1071 107 l 1028 10 l 1025 17 l 1021 6 l 975 107 l 769 563 l 739 631 l 708 563 l 503 107 l 497 94 l 456 0 l 413 93 l 407 107 l 67 864 l 150 864 l 425 253 l 456 185 l 485 253 l 690 710 l 739 815 l 786 710 l 992 254 l 1025 168 l 1054 254 l 1328 864 z "},"w":{"ha":1478,"x_min":65,"x_max":1413,"o":"m 1328 864 l 1411 864 l 1071 107 l 1028 10 l 1025 17 l 1021 6 l 975 107 l 769 563 l 739 631 l 708 563 l 503 107 l 497 94 l 456 0 l 413 93 l 407 107 l 67 864 l 150 864 l 425 253 l 456 185 l 485 253 l 690 710 l 739 815 l 786 710 l 992 254 l 1025 168 l 1054 254 l 1328 864 z "},"X":{"ha":878,"x_min":65,"x_max":813,"o":"m 497 428 l 813 0 l 724 0 l 464 353 l 439 388 l 439 386 l 394 446 l 396 447 l 382 465 l 369 482 l 90 861 l 178 861 l 403 557 l 414 540 l 439 507 l 464 540 l 476 557 l 700 861 l 789 861 l 508 482 l 497 465 l 483 447 l 497 428 m 67 0 l 315 338 l 360 278 l 154 0 l 67 0 z "},"x":{"ha":878,"x_min":65,"x_max":813,"o":"m 497 428 l 813 0 l 724 0 l 464 353 l 439 388 l 439 386 l 394 446 l 396 447 l 382 465 l 369 482 l 90 861 l 178 861 l 403 557 l 414 540 l 439 507 l 464 540 l 476 557 l 700 861 l 789 861 l 508 482 l 497 465 l 483 447 l 497 428 m 67 0 l 315 338 l 360 278 l 154 0 l 67 0 z "},"Y":{"ha":853,"x_min":65,"x_max":788,"o":"m 699 864 l 786 864 l 494 464 l 485 450 l 483 450 l 471 432 l 468 428 l 463 419 l 463 0 l 390 0 l 390 419 l 385 428 l 382 432 l 369 450 l 368 450 l 368 450 l 358 464 l 67 864 l 154 864 l 401 525 l 422 496 l 449 522 l 450 524 l 451 525 l 699 864 z "},"y":{"ha":853,"x_min":65,"x_max":788,"o":"m 699 864 l 786 864 l 494 464 l 485 450 l 483 450 l 471 432 l 468 428 l 463 419 l 463 0 l 390 0 l 390 419 l 385 428 l 382 432 l 369 450 l 368 450 l 368 450 l 358 464 l 67 864 l 154 864 l 401 525 l 422 496 l 449 522 l 450 524 l 451 525 l 699 864 z "},"Ý":{"ha":853,"x_min":65,"x_max":788,"o":"m 699 864 l 786 864 l 494 464 l 485 450 l 483 450 l 471 432 l 468 428 l 463 419 l 463 0 l 390 0 l 390 419 l 385 428 l 382 432 l 369 450 l 368 450 l 368 450 l 358 464 l 67 864 l 154 864 l 401 525 l 422 496 l 449 522 l 450 524 l 451 525 l 699 864 z "},"ý":{"ha":853,"x_min":65,"x_max":788,"o":"m 699 864 l 786 864 l 494 464 l 485 450 l 483 450 l 471 432 l 468 428 l 463 419 l 463 0 l 390 0 l 390 419 l 385 428 l 382 432 l 369 450 l 368 450 l 368 450 l 358 464 l 67 864 l 154 864 l 401 525 l 422 496 l 449 522 l 450 524 l 451 525 l 699 864 z "},"ÿ":{"ha":853,"x_min":65,"x_max":788,"o":"m 699 864 l 786 864 l 494 464 l 485 450 l 483 450 l 471 432 l 468 428 l 463 419 l 463 0 l 390 0 l 390 419 l 385 428 l 382 432 l 369 450 l 368 450 l 368 450 l 358 464 l 67 864 l 154 864 l 401 525 l 422 496 l 449 522 l 450 524 l 451 525 l 699 864 z "},"Ÿ":{"ha":853,"x_min":65,"x_max":788,"o":"m 699 864 l 786 864 l 494 464 l 485 450 l 483 450 l 471 432 l 468 428 l 463 419 l 463 0 l 390 0 l 390 419 l 385 428 l 382 432 l 369 450 l 368 450 l 368 450 l 358 464 l 67 864 l 154 864 l 401 525 l 422 496 l 449 522 l 450 524 l 451 525 l 699 864 z "},"Z":{"ha":893,"x_min":65,"x_max":828,"o":"m 133 71 l 828 71 l 828 0 l 82 0 l 133 71 m 621 740 l 657 789 l 67 789 l 67 860 l 797 860 l 736 776 l 315 200 l 226 200 l 621 740 z "},"z":{"ha":893,"x_min":65,"x_max":828,"o":"m 133 71 l 828 71 l 828 0 l 82 0 l 133 71 m 621 740 l 657 789 l 67 789 l 67 860 l 797 860 l 736 776 l 315 200 l 226 200 l 621 740 z "}," ":{"ha":526,"x_min":0,"x_max":0,"o":""},"­":{"ha":0,"x_min":0,"x_max":0,"o":""}}}
